<svg width="64" height="64" viewBox="0 0 40 40" fill="none" xmlns="http://www.w3.org/2000/svg">
  <defs>
    <linearGradient id="optikit-fav-grad" x1="0%" y1="0%" x2="100%" y2="100%">
      <stop offset="0%" stop-color="#4F8DFD" />
      <stop offset="50%" stop-color="#6B6CF7" />
      <stop offset="100%" stop-color="#8B5CF6" />
    </linearGradient>
  </defs>
  <!-- Rounded Hexagon Background -->
  <path
    d="M 20 2.5 
       C 20.7 2.5 21.4 2.9 21.8 3.6 
       L 34.3 10.8 
       C 35 11.2 35.5 12 35.5 12.9 
       L 35.5 27.1 
       C 35.5 28 35 28.8 34.3 29.2 
       L 21.8 36.4 
       C 21.4 37.1 20.7 37.5 20 37.5 
       C 19.3 37.5 18.6 37.1 18.2 36.4 
       L 5.7 29.2 
       C 5 28.8 4.5 28 4.5 27.1 
       L 4.5 12.9 
       C 4.5 12 5 11.2 5.7 10.8 
       L 18.2 3.6 
       C 18.6 2.9 19.3 2.5 20 2.5 Z"
    stroke="url(#optikit-fav-grad)"
    stroke-width="2.5"
    stroke-linejoin="round"
    fill="#FFFFFF"
  />
  <!-- Centered Code Symbol </> -->
  <g stroke="#0F172A" stroke-width="2.2" stroke-linecap="round" stroke-linejoin="round">
    <path d="M 14.5 15 L 10.5 20 L 14.5 25" />
    <path d="M 21.5 14 L 18.5 26" />
    <path d="M 25.5 15 L 29.5 20 L 25.5 25" />
  </g>
</svg>